<?xml version="1.0" encoding="UTF-8"?>
<mxfile host="app.diagrams.net" modified="2023-05-10T02:31:30.141Z" agent="Mozilla/5.0 (Macintosh; Intel Mac OS X 10.15; rv:109.0) Gecko/20100101 Firefox/113.0" etag="tBuUNV7U2N2y90Hd8D8i" version="21.2.7" type="google" pages="9">
  <diagram name="01 The Frequency Triangle" id="0jp7J8xeaBzxCA_sJO00">
    <mxGraphModel dx="1570" dy="1027" grid="1" gridSize="10" guides="1" tooltips="1" connect="1" arrows="1" fold="1" page="1" pageScale="1" pageWidth="650" pageHeight="1100" math="0" shadow="0">
      <root>
        <mxCell id="PQV7QwDKab39Jnytz6LQ-0" />
        <mxCell id="PQV7QwDKab39Jnytz6LQ-1" parent="PQV7QwDKab39Jnytz6LQ-0" />
        <mxCell id="PQV7QwDKab39Jnytz6LQ-5" value="" style="edgeStyle=orthogonalEdgeStyle;rounded=0;orthogonalLoop=1;jettySize=auto;html=1;exitX=1;exitY=0.5;exitDx=0;exitDy=0;entryX=0;entryY=0.5;entryDx=0;entryDy=0;align=left;spacingLeft=6;verticalAlign=top;" parent="PQV7QwDKab39Jnytz6LQ-1" edge="1">
          <mxGeometry relative="1" as="geometry">
            <mxPoint x="390" y="175" as="sourcePoint" />
          </mxGeometry>
        </mxCell>
        <mxCell id="PQV7QwDKab39Jnytz6LQ-11" value="&amp;nbsp;" style="text;html=1;strokeColor=none;fillColor=none;align=center;verticalAlign=top;whiteSpace=wrap;rounded=0;spacingLeft=6;fontFamily=Computer Modern Sans;fontSource=https%3A%2F%2Fraw.githubusercontent.com%2Faaaakshat%2Fcm-web-fonts%2Fmaster%2Ffont%2FSans%2Fcmunss.woff;" parent="PQV7QwDKab39Jnytz6LQ-1" vertex="1">
          <mxGeometry y="160" width="650" height="30" as="geometry" />
        </mxCell>
        <mxCell id="olaUbA6Aq5hBg2hxnlW2-2" style="edgeStyle=orthogonalEdgeStyle;rounded=0;orthogonalLoop=1;jettySize=auto;html=1;exitX=1;exitY=0.5;exitDx=0;exitDy=0;entryX=0;entryY=0.5;entryDx=0;entryDy=0;fontFamily=CMU Sans Serif;fontSize=12;fontColor=default;endArrow=none;endFill=0;" parent="PQV7QwDKab39Jnytz6LQ-1" edge="1">
          <mxGeometry relative="1" as="geometry">
            <mxPoint x="160" y="855" as="sourcePoint" />
          </mxGeometry>
        </mxCell>
        <mxCell id="6Ur_F1BJGjvIpSoa2W6i-16" value="Decentralized" style="ellipse;whiteSpace=wrap;html=1;aspect=fixed;fontFamily=Computer Modern Sans Bold;align=center;strokeColor=#828282;rounded=0;spacingLeft=0;dashed=1;dashPattern=8 8;fontSource=https%3A%2F%2Fraw.githubusercontent.com%2Faaaakshat%2Fcm-web-fonts%2Fmaster%2Ffont%2FSans%2Fcmunsx.woff;spacing=6;" parent="PQV7QwDKab39Jnytz6LQ-1" vertex="1">
          <mxGeometry x="270" y="160" width="110" height="110" as="geometry" />
        </mxCell>
        <mxCell id="6Ur_F1BJGjvIpSoa2W6i-17" style="rounded=0;orthogonalLoop=1;jettySize=auto;html=1;exitX=1;exitY=0;exitDx=0;exitDy=0;entryX=0;entryY=1;entryDx=0;entryDy=0;fontFamily=Computer Modern Sans;fontSize=12;fontColor=default;endArrow=none;endFill=0;fontSource=https%3A%2F%2Fraw.githubusercontent.com%2Faaaakshat%2Fcm-web-fonts%2Fmaster%2Ffont%2FSans%2Fcmunss.woff;" parent="PQV7QwDKab39Jnytz6LQ-1" source="6Ur_F1BJGjvIpSoa2W6i-21" target="6Ur_F1BJGjvIpSoa2W6i-16" edge="1">
          <mxGeometry relative="1" as="geometry" />
        </mxCell>
        <mxCell id="6Ur_F1BJGjvIpSoa2W6i-18" value="Delegation Model" style="edgeLabel;html=1;align=center;verticalAlign=middle;resizable=0;points=[];fontSize=12;fontFamily=Computer Modern Sans;fontColor=default;rotation=305;fontSource=https%3A%2F%2Fraw.githubusercontent.com%2Faaaakshat%2Fcm-web-fonts%2Fmaster%2Ffont%2FSans%2Fcmunss.woff;" parent="6Ur_F1BJGjvIpSoa2W6i-17" vertex="1" connectable="0">
          <mxGeometry x="0.0362" y="1" relative="1" as="geometry">
            <mxPoint x="-7" y="-11" as="offset" />
          </mxGeometry>
        </mxCell>
        <mxCell id="6Ur_F1BJGjvIpSoa2W6i-19" style="edgeStyle=orthogonalEdgeStyle;rounded=0;orthogonalLoop=1;jettySize=auto;html=1;exitX=1;exitY=0.5;exitDx=0;exitDy=0;entryX=0;entryY=0.5;entryDx=0;entryDy=0;fontFamily=Computer Modern Sans;fontSize=12;fontColor=default;endArrow=none;endFill=0;fontSource=https%3A%2F%2Fraw.githubusercontent.com%2Faaaakshat%2Fcm-web-fonts%2Fmaster%2Ffont%2FSans%2Fcmunss.woff;" parent="PQV7QwDKab39Jnytz6LQ-1" source="6Ur_F1BJGjvIpSoa2W6i-21" target="6Ur_F1BJGjvIpSoa2W6i-24" edge="1">
          <mxGeometry relative="1" as="geometry" />
        </mxCell>
        <mxCell id="6Ur_F1BJGjvIpSoa2W6i-20" value="Data Transaction Model" style="edgeLabel;html=1;align=center;verticalAlign=middle;resizable=0;points=[];fontSize=12;fontFamily=Computer Modern Sans;fontColor=default;fontSource=https%3A%2F%2Fraw.githubusercontent.com%2Faaaakshat%2Fcm-web-fonts%2Fmaster%2Ffont%2FSans%2Fcmunss.woff;" parent="6Ur_F1BJGjvIpSoa2W6i-19" vertex="1" connectable="0">
          <mxGeometry x="-0.0448" y="-1" relative="1" as="geometry">
            <mxPoint x="7" y="14" as="offset" />
          </mxGeometry>
        </mxCell>
        <mxCell id="6Ur_F1BJGjvIpSoa2W6i-21" value="Low Cost/Friction" style="ellipse;whiteSpace=wrap;html=1;aspect=fixed;fontFamily=Computer Modern Sans Bold;align=center;strokeColor=#828282;rounded=0;spacingLeft=0;dashed=1;fontSource=https%3A%2F%2Fraw.githubusercontent.com%2Faaaakshat%2Fcm-web-fonts%2Fmaster%2Ffont%2FSans%2Fcmunsx.woff;strokeWidth=1;perimeterSpacing=0;spacing=6;dashPattern=8 8;" parent="PQV7QwDKab39Jnytz6LQ-1" vertex="1">
          <mxGeometry x="50" y="440" width="110" height="110" as="geometry" />
        </mxCell>
        <mxCell id="6Ur_F1BJGjvIpSoa2W6i-22" style="rounded=0;orthogonalLoop=1;jettySize=auto;html=1;exitX=0;exitY=0;exitDx=0;exitDy=0;entryX=1;entryY=1;entryDx=0;entryDy=0;fontFamily=Computer Modern Sans;fontSize=12;fontColor=default;endArrow=none;endFill=0;fontSource=https%3A%2F%2Fraw.githubusercontent.com%2Faaaakshat%2Fcm-web-fonts%2Fmaster%2Ffont%2FSans%2Fcmunss.woff;" parent="PQV7QwDKab39Jnytz6LQ-1" source="6Ur_F1BJGjvIpSoa2W6i-24" target="6Ur_F1BJGjvIpSoa2W6i-16" edge="1">
          <mxGeometry relative="1" as="geometry" />
        </mxCell>
        <mxCell id="6Ur_F1BJGjvIpSoa2W6i-23" value="Capacity Staking Model" style="edgeLabel;html=1;align=center;verticalAlign=middle;resizable=0;points=[];fontSize=12;fontFamily=Computer Modern Sans;fontColor=default;rotation=55;fontSource=https%3A%2F%2Fraw.githubusercontent.com%2Faaaakshat%2Fcm-web-fonts%2Fmaster%2Ffont%2FSans%2Fcmunss.woff;" parent="6Ur_F1BJGjvIpSoa2W6i-22" vertex="1" connectable="0">
          <mxGeometry x="0.2085" y="-1" relative="1" as="geometry">
            <mxPoint x="19" y="7" as="offset" />
          </mxGeometry>
        </mxCell>
        <mxCell id="6Ur_F1BJGjvIpSoa2W6i-24" value="Business-Friendly" style="ellipse;whiteSpace=wrap;html=1;aspect=fixed;fontFamily=Computer Modern Sans Bold;align=center;strokeColor=#828282;rounded=0;spacingLeft=0;dashed=1;dashPattern=8 8;fontSource=https%3A%2F%2Fraw.githubusercontent.com%2Faaaakshat%2Fcm-web-fonts%2Fmaster%2Ffont%2FSans%2Fcmunsx.woff;spacing=6;" parent="PQV7QwDKab39Jnytz6LQ-1" vertex="1">
          <mxGeometry x="490" y="440" width="110" height="110" as="geometry" />
        </mxCell>
        <mxCell id="6Ur_F1BJGjvIpSoa2W6i-25" style="edgeStyle=orthogonalEdgeStyle;rounded=0;orthogonalLoop=1;jettySize=auto;html=1;entryX=0.5;entryY=1;entryDx=0;entryDy=0;fontFamily=Computer Modern Sans;fontSize=12;fontColor=default;startArrow=classic;startFill=1;fontSource=https%3A%2F%2Fraw.githubusercontent.com%2Faaaakshat%2Fcm-web-fonts%2Fmaster%2Ffont%2FSans%2Fcmunss.woff;" parent="PQV7QwDKab39Jnytz6LQ-1" source="6Ur_F1BJGjvIpSoa2W6i-28" target="6Ur_F1BJGjvIpSoa2W6i-16" edge="1">
          <mxGeometry relative="1" as="geometry" />
        </mxCell>
        <mxCell id="6Ur_F1BJGjvIpSoa2W6i-26" style="rounded=0;orthogonalLoop=1;jettySize=auto;html=1;fontFamily=Computer Modern Sans;fontSize=12;fontColor=default;startArrow=classic;startFill=1;fontSource=https%3A%2F%2Fraw.githubusercontent.com%2Faaaakshat%2Fcm-web-fonts%2Fmaster%2Ffont%2FSans%2Fcmunss.woff;" parent="PQV7QwDKab39Jnytz6LQ-1" source="6Ur_F1BJGjvIpSoa2W6i-28" target="6Ur_F1BJGjvIpSoa2W6i-21" edge="1">
          <mxGeometry relative="1" as="geometry" />
        </mxCell>
        <mxCell id="6Ur_F1BJGjvIpSoa2W6i-27" style="rounded=0;orthogonalLoop=1;jettySize=auto;html=1;fontFamily=Computer Modern Sans;fontSize=12;fontColor=default;startArrow=classic;startFill=1;fontSource=https%3A%2F%2Fraw.githubusercontent.com%2Faaaakshat%2Fcm-web-fonts%2Fmaster%2Ffont%2FSans%2Fcmunss.woff;" parent="PQV7QwDKab39Jnytz6LQ-1" source="6Ur_F1BJGjvIpSoa2W6i-28" target="6Ur_F1BJGjvIpSoa2W6i-24" edge="1">
          <mxGeometry relative="1" as="geometry" />
        </mxCell>
        <mxCell id="6Ur_F1BJGjvIpSoa2W6i-28" value="Ethical&lt;br&gt;Economical&lt;br&gt;Scalable" style="ellipse;whiteSpace=wrap;html=1;aspect=fixed;fontFamily=Computer Modern Sans;align=center;strokeColor=#828282;rounded=0;spacingLeft=0;fontSource=https%3A%2F%2Fraw.githubusercontent.com%2Faaaakshat%2Fcm-web-fonts%2Fmaster%2Ffont%2FSans%2Fcmunss.woff;" parent="PQV7QwDKab39Jnytz6LQ-1" vertex="1">
          <mxGeometry x="280" y="350" width="90" height="90" as="geometry" />
        </mxCell>
      </root>
    </mxGraphModel>
  </diagram>
  <diagram name="02 Decentralized vs Low Friction/Cost Dichotomy" id="l3ttSM17x07qyO1xMLWy">
    <mxGraphModel dx="1570" dy="1027" grid="1" gridSize="10" guides="1" tooltips="1" connect="1" arrows="1" fold="1" page="1" pageScale="1" pageWidth="650" pageHeight="1100" math="0" shadow="0">
      <root>
        <mxCell id="xjhvoiECzRRIQFoznS9t-0" />
        <mxCell id="xjhvoiECzRRIQFoznS9t-1" parent="xjhvoiECzRRIQFoznS9t-0" />
        <mxCell id="xjhvoiECzRRIQFoznS9t-2" value="" style="edgeStyle=orthogonalEdgeStyle;rounded=0;orthogonalLoop=1;jettySize=auto;html=1;exitX=1;exitY=0.5;exitDx=0;exitDy=0;entryX=0;entryY=0.5;entryDx=0;entryDy=0;align=left;spacingLeft=6;verticalAlign=top;" parent="xjhvoiECzRRIQFoznS9t-1" edge="1">
          <mxGeometry relative="1" as="geometry">
            <mxPoint x="390" y="175" as="sourcePoint" />
          </mxGeometry>
        </mxCell>
        <mxCell id="p3MV57nkt81Z5C-GlthK-0" style="edgeStyle=orthogonalEdgeStyle;rounded=0;orthogonalLoop=1;jettySize=auto;html=1;exitX=1;exitY=0.5;exitDx=0;exitDy=0;entryX=0;entryY=0.5;entryDx=0;entryDy=0;fontFamily=Computer Modern Sans;fontSize=12;fontColor=default;endArrow=none;endFill=0;fontSource=https%3A%2F%2Fraw.githubusercontent.com%2Faaaakshat%2Fcm-web-fonts%2Fmaster%2Ffont%2FSans%2Fcmunss.woff;" parent="xjhvoiECzRRIQFoznS9t-1" source="p3MV57nkt81Z5C-GlthK-2" target="p3MV57nkt81Z5C-GlthK-3" edge="1">
          <mxGeometry relative="1" as="geometry" />
        </mxCell>
        <mxCell id="p3MV57nkt81Z5C-GlthK-1" value="Delegation Model" style="edgeLabel;html=1;align=center;verticalAlign=middle;resizable=0;points=[];fontSize=12;fontFamily=Computer Modern Sans Bold;fontColor=default;fontSource=https%3A%2F%2Fraw.githubusercontent.com%2Faaaakshat%2Fcm-web-fonts%2Fmaster%2Ffont%2FSans%2Fcmunsx.woff;" parent="p3MV57nkt81Z5C-GlthK-0" connectable="0" vertex="1">
          <mxGeometry x="-0.0448" y="-1" relative="1" as="geometry">
            <mxPoint x="7" y="14" as="offset" />
          </mxGeometry>
        </mxCell>
        <mxCell id="p3MV57nkt81Z5C-GlthK-2" value="Low Cost/Friction" style="ellipse;whiteSpace=wrap;html=1;aspect=fixed;fontFamily=Computer Modern Sans;align=center;strokeColor=#828282;rounded=0;spacingLeft=0;dashed=1;fontSource=https%3A%2F%2Fraw.githubusercontent.com%2Faaaakshat%2Fcm-web-fonts%2Fmaster%2Ffont%2FSans%2Fcmunss.woff;strokeWidth=1;perimeterSpacing=0;spacing=6;dashPattern=8 8;" parent="xjhvoiECzRRIQFoznS9t-1" vertex="1">
          <mxGeometry x="50" y="40" width="110" height="110" as="geometry" />
        </mxCell>
        <mxCell id="p3MV57nkt81Z5C-GlthK-3" value="Decentralized" style="ellipse;whiteSpace=wrap;html=1;aspect=fixed;fontFamily=Computer Modern Sans;align=center;strokeColor=#828282;rounded=0;spacingLeft=0;dashed=1;dashPattern=8 8;fontSource=https%3A%2F%2Fraw.githubusercontent.com%2Faaaakshat%2Fcm-web-fonts%2Fmaster%2Ffont%2FSans%2Fcmunss.woff;spacing=6;" parent="xjhvoiECzRRIQFoznS9t-1" vertex="1">
          <mxGeometry x="490" y="40" width="110" height="110" as="geometry" />
        </mxCell>
        <mxCell id="WAUBQuoj9BnVrYwkCkSK-0" value="&amp;nbsp;" style="text;html=1;strokeColor=none;fillColor=none;align=center;verticalAlign=top;whiteSpace=wrap;rounded=0;spacingLeft=6;fontFamily=Computer Modern Sans;fontSource=https%3A%2F%2Fraw.githubusercontent.com%2Faaaakshat%2Fcm-web-fonts%2Fmaster%2Ffont%2FSans%2Fcmunss.woff;" parent="xjhvoiECzRRIQFoznS9t-1" vertex="1">
          <mxGeometry y="40" width="650" height="30" as="geometry" />
        </mxCell>
      </root>
    </mxGraphModel>
  </diagram>
  <diagram id="lnwuStqbPDsyMnDCTvlr" name="03 Actor Interactions">
    <mxGraphModel dx="1570" dy="1027" grid="1" gridSize="10" guides="1" tooltips="1" connect="1" arrows="1" fold="1" page="1" pageScale="1" pageWidth="650" pageHeight="1100" math="0" shadow="0">
      <root>
        <mxCell id="NKldAYKKpZrrxnmpVVG--0" />
        <mxCell id="NKldAYKKpZrrxnmpVVG--1" parent="NKldAYKKpZrrxnmpVVG--0" />
        <mxCell id="te3I2RwE1oj6-cjQAB2Y-0" value="&amp;nbsp;" style="text;html=1;strokeColor=none;fillColor=none;align=center;verticalAlign=top;whiteSpace=wrap;rounded=0;spacingLeft=0;fontFamily=Computer Modern Sans;fontSource=https%3A%2F%2Fraw.githubusercontent.com%2Faaaakshat%2Fcm-web-fonts%2Fmaster%2Ffont%2FSans%2Fcmunss.woff;" parent="NKldAYKKpZrrxnmpVVG--1" vertex="1">
          <mxGeometry y="40" width="650" height="30" as="geometry" />
        </mxCell>
        <mxCell id="AuGx9odmgUAyCn3Inq0u-1" style="edgeStyle=orthogonalEdgeStyle;rounded=0;orthogonalLoop=1;jettySize=auto;html=1;fontFamily=Computer Modern Sans;fontSize=12;fontColor=default;fontSource=https%3A%2F%2Fraw.githubusercontent.com%2Faaaakshat%2Fcm-web-fonts%2Fmaster%2Ffont%2FSans%2Fcmunss.woff;" parent="NKldAYKKpZrrxnmpVVG--1" source="usVCvWCJpw-RuqU6p0Ut-27" edge="1">
          <mxGeometry relative="1" as="geometry">
            <mxPoint x="240" y="229.5" as="targetPoint" />
          </mxGeometry>
        </mxCell>
        <mxCell id="oKKIdcN-7brp2YPUhmsQ-1" value="Coinless Revocation&lt;br&gt;Control" style="edgeLabel;html=1;align=center;verticalAlign=middle;resizable=0;points=[];fontSize=12;fontFamily=Computer Modern Sans;fontColor=default;fontSource=https%3A%2F%2Fraw.githubusercontent.com%2Faaaakshat%2Fcm-web-fonts%2Fmaster%2Ffont%2FSans%2Fcmunss.woff;" parent="AuGx9odmgUAyCn3Inq0u-1" vertex="1" connectable="0">
          <mxGeometry x="-0.2846" relative="1" as="geometry">
            <mxPoint y="-7" as="offset" />
          </mxGeometry>
        </mxCell>
        <mxCell id="AuGx9odmgUAyCn3Inq0u-2" style="edgeStyle=orthogonalEdgeStyle;rounded=0;orthogonalLoop=1;jettySize=auto;html=1;fontFamily=Computer Modern Sans;fontSize=12;fontColor=default;exitX=1;exitY=0.5;exitDx=0;exitDy=0;fontSource=https%3A%2F%2Fraw.githubusercontent.com%2Faaaakshat%2Fcm-web-fonts%2Fmaster%2Ffont%2FSans%2Fcmunss.woff;" parent="NKldAYKKpZrrxnmpVVG--1" source="usVCvWCJpw-RuqU6p0Ut-27" edge="1">
          <mxGeometry relative="1" as="geometry">
            <mxPoint x="410" y="109.5" as="targetPoint" />
          </mxGeometry>
        </mxCell>
        <mxCell id="AuGx9odmgUAyCn3Inq0u-3" value="Delegate" style="edgeLabel;html=1;align=center;verticalAlign=middle;resizable=0;points=[];fontSize=12;fontFamily=Computer Modern Sans;fontColor=default;spacing=6;labelBackgroundColor=default;fontSource=https%3A%2F%2Fraw.githubusercontent.com%2Faaaakshat%2Fcm-web-fonts%2Fmaster%2Ffont%2FSans%2Fcmunss.woff;" parent="AuGx9odmgUAyCn3Inq0u-2" vertex="1" connectable="0">
          <mxGeometry x="-0.1308" y="-1" relative="1" as="geometry">
            <mxPoint x="-12" y="-1" as="offset" />
          </mxGeometry>
        </mxCell>
        <mxCell id="usVCvWCJpw-RuqU6p0Ut-27" value="&lt;font data-font-src=&quot;https://raw.githubusercontent.com/aaaakshat/cm-web-fonts/master/font/Sans/cmunsx.woff&quot; face=&quot;Computer Modern Sans Bold&quot;&gt;End User&lt;/font&gt;&lt;br&gt;(MSA)" style="rounded=0;whiteSpace=wrap;html=1;align=center;spacingLeft=0;verticalAlign=middle;strokeColor=#828282;fontFamily=Computer Modern Sans;fontSource=https%3A%2F%2Fraw.githubusercontent.com%2Faaaakshat%2Fcm-web-fonts%2Fmaster%2Ffont%2FSans%2Fcmunss.woff;" parent="NKldAYKKpZrrxnmpVVG--1" vertex="1">
          <mxGeometry x="160" y="40" width="160" height="60" as="geometry" />
        </mxCell>
        <mxCell id="AuGx9odmgUAyCn3Inq0u-0" style="edgeStyle=orthogonalEdgeStyle;rounded=0;orthogonalLoop=1;jettySize=auto;html=1;fontFamily=Computer Modern Sans;fontSize=12;fontColor=default;fontSource=https%3A%2F%2Fraw.githubusercontent.com%2Faaaakshat%2Fcm-web-fonts%2Fmaster%2Ffont%2FSans%2Fcmunss.woff;movable=1;resizable=1;rotatable=1;deletable=1;editable=1;locked=0;connectable=1;" parent="NKldAYKKpZrrxnmpVVG--1" source="usVCvWCJpw-RuqU6p0Ut-32" edge="1">
          <mxGeometry relative="1" as="geometry">
            <mxPoint x="410" y="229.5" as="targetPoint" />
          </mxGeometry>
        </mxCell>
        <mxCell id="oKKIdcN-7brp2YPUhmsQ-0" value="Interact on behalf&lt;br&gt;of the User" style="edgeLabel;html=1;align=center;verticalAlign=middle;resizable=0;points=[];fontSize=12;fontFamily=Computer Modern Sans;fontColor=default;fontSource=https%3A%2F%2Fraw.githubusercontent.com%2Faaaakshat%2Fcm-web-fonts%2Fmaster%2Ffont%2FSans%2Fcmunss.woff;" parent="AuGx9odmgUAyCn3Inq0u-0" vertex="1" connectable="0">
          <mxGeometry x="-0.2" y="1" relative="1" as="geometry">
            <mxPoint as="offset" />
          </mxGeometry>
        </mxCell>
        <mxCell id="usVCvWCJpw-RuqU6p0Ut-32" value="&lt;font data-font-src=&quot;https://raw.githubusercontent.com/aaaakshat/cm-web-fonts/master/font/Sans/cmunsx.woff&quot; face=&quot;Computer Modern Sans Bold&quot;&gt;Frequency Application&lt;/font&gt;&lt;br&gt;(Provider MSA)" style="rounded=0;whiteSpace=wrap;html=1;align=center;spacingLeft=0;verticalAlign=middle;strokeColor=#828282;fontFamily=Computer Modern Sans;fontSource=https%3A%2F%2Fraw.githubusercontent.com%2Faaaakshat%2Fcm-web-fonts%2Fmaster%2Ffont%2FSans%2Fcmunss.woff;" parent="NKldAYKKpZrrxnmpVVG--1" vertex="1">
          <mxGeometry x="330" y="110" width="160" height="60" as="geometry" />
        </mxCell>
        <mxCell id="usVCvWCJpw-RuqU6p0Ut-33" value="&lt;font data-font-src=&quot;https://raw.githubusercontent.com/aaaakshat/cm-web-fonts/master/font/Sans/cmunsx.woff&quot; face=&quot;Computer Modern Sans Bold&quot;&gt;Frequency Blockchain&lt;/font&gt;" style="rounded=0;whiteSpace=wrap;html=1;align=center;spacingLeft=0;verticalAlign=middle;strokeColor=#828282;fontFamily=Computer Modern Sans;fontSource=https%3A%2F%2Fraw.githubusercontent.com%2Faaaakshat%2Fcm-web-fonts%2Fmaster%2Ffont%2FSans%2Fcmunss.woff;" parent="NKldAYKKpZrrxnmpVVG--1" vertex="1">
          <mxGeometry x="160" y="230" width="330" height="60" as="geometry" />
        </mxCell>
      </root>
    </mxGraphModel>
  </diagram>
  <diagram id="WZCJU4-gJBl8uC5tmsQB" name="04 Frequency Stack">
    <mxGraphModel dx="1570" dy="1027" grid="1" gridSize="10" guides="1" tooltips="1" connect="1" arrows="1" fold="1" page="1" pageScale="1" pageWidth="650" pageHeight="1100" math="0" shadow="0">
      <root>
        <mxCell id="mFZgqXIdEkKoLmMw0_uw-0" />
        <mxCell id="mFZgqXIdEkKoLmMw0_uw-1" parent="mFZgqXIdEkKoLmMw0_uw-0" />
        <mxCell id="wiOzgGUxshJaPZG7DE2F-0" value="&amp;nbsp;" style="text;html=1;strokeColor=none;fillColor=none;align=center;verticalAlign=top;whiteSpace=wrap;rounded=0;spacingLeft=6;fontFamily=Computer Modern Sans;fontSource=https%3A%2F%2Fraw.githubusercontent.com%2Faaaakshat%2Fcm-web-fonts%2Fmaster%2Ffont%2FSans%2Fcmunss.woff;" parent="mFZgqXIdEkKoLmMw0_uw-1" vertex="1">
          <mxGeometry y="50" width="650" height="30" as="geometry" />
        </mxCell>
        <mxCell id="Cw8-qtwZ6gx1_TwSwAym-8" value="&lt;font data-font-src=&quot;https://raw.githubusercontent.com/aaaakshat/cm-web-fonts/master/font/Sans/cmunsx.woff&quot; face=&quot;Computer Modern Sans Bold&quot;&gt;Users&lt;/font&gt;&lt;br&gt;(Authentication)" style="rounded=0;whiteSpace=wrap;html=1;shadow=0;labelBackgroundColor=none;sketch=0;strokeWidth=1;fillColor=#FFFFFF;gradientColor=none;fontSize=12;align=center;strokeColor=#828282;spacingLeft=0;fontFamily=Computer Modern Sans;verticalAlign=middle;fontSource=https%3A%2F%2Fraw.githubusercontent.com%2Faaaakshat%2Fcm-web-fonts%2Fmaster%2Ffont%2FSans%2Fcmunss.woff;" parent="mFZgqXIdEkKoLmMw0_uw-1" vertex="1">
          <mxGeometry x="260" y="50" width="130" height="50" as="geometry" />
        </mxCell>
        <mxCell id="Cw8-qtwZ6gx1_TwSwAym-10" value="&lt;font data-font-src=&quot;https://raw.githubusercontent.com/aaaakshat/cm-web-fonts/master/font/Sans/cmunsx.woff&quot; face=&quot;Computer Modern Sans Bold&quot;&gt;Applications from Providers&lt;/font&gt;&lt;br&gt;(User Experiences)" style="rounded=0;whiteSpace=wrap;html=1;shadow=0;labelBackgroundColor=none;sketch=0;strokeWidth=1;fillColor=#FFFFFF;gradientColor=none;fontSize=12;align=center;strokeColor=#828282;spacingLeft=0;fontFamily=Computer Modern Sans;verticalAlign=middle;fontSource=https%3A%2F%2Fraw.githubusercontent.com%2Faaaakshat%2Fcm-web-fonts%2Fmaster%2Ffont%2FSans%2Fcmunss.woff;" parent="mFZgqXIdEkKoLmMw0_uw-1" vertex="1">
          <mxGeometry x="230" y="100" width="190" height="50" as="geometry" />
        </mxCell>
        <mxCell id="Cw8-qtwZ6gx1_TwSwAym-12" value="&lt;font data-font-src=&quot;https://raw.githubusercontent.com/aaaakshat/cm-web-fonts/master/font/Sans/cmunsx.woff&quot; face=&quot;Computer Modern Sans Bold&quot;&gt;Frequency Blockchain&lt;/font&gt;&lt;br&gt;(Logic and Distribution)" style="rounded=0;whiteSpace=wrap;html=1;shadow=0;labelBackgroundColor=none;sketch=0;strokeWidth=1;fillColor=#FFFFFF;gradientColor=none;fontSize=12;align=center;strokeColor=#828282;spacingLeft=0;fontFamily=Computer Modern Sans;verticalAlign=middle;fontSource=https%3A%2F%2Fraw.githubusercontent.com%2Faaaakshat%2Fcm-web-fonts%2Fmaster%2Ffont%2FSans%2Fcmunss.woff;" parent="mFZgqXIdEkKoLmMw0_uw-1" vertex="1">
          <mxGeometry x="200" y="150" width="250" height="50" as="geometry" />
        </mxCell>
        <mxCell id="Cw8-qtwZ6gx1_TwSwAym-13" value="&lt;font data-font-src=&quot;https://raw.githubusercontent.com/aaaakshat/cm-web-fonts/master/font/Sans/cmunsx.woff&quot; face=&quot;Computer Modern Sans Bold&quot;&gt;Polkadot Relay Chain&lt;/font&gt;&lt;br&gt;(Consensus)" style="rounded=0;whiteSpace=wrap;html=1;shadow=0;labelBackgroundColor=none;sketch=0;strokeWidth=1;fillColor=#FFFFFF;gradientColor=none;fontSize=12;align=center;strokeColor=#828282;spacingLeft=0;fontFamily=Computer Modern Sans;verticalAlign=middle;fontSource=https%3A%2F%2Fraw.githubusercontent.com%2Faaaakshat%2Fcm-web-fonts%2Fmaster%2Ffont%2FSans%2Fcmunss.woff;" parent="mFZgqXIdEkKoLmMw0_uw-1" vertex="1">
          <mxGeometry x="170" y="200" width="310" height="50" as="geometry" />
        </mxCell>
        <mxCell id="gTsbZUEnVb3ri65Hi7w4-0" value="Transaction" parent="mFZgqXIdEkKoLmMw0_uw-0" />
      </root>
    </mxGraphModel>
  </diagram>
  <diagram name="05 Decentralized vs Business-Friendly Dichotomy" id="m4yFmAojIpg5bVhNf6AA">
    <mxGraphModel dx="1570" dy="1027" grid="1" gridSize="10" guides="1" tooltips="1" connect="1" arrows="1" fold="1" page="1" pageScale="1" pageWidth="650" pageHeight="1100" math="0" shadow="0">
      <root>
        <mxCell id="KFXhJKe6_9REkI408M1E-0" />
        <mxCell id="KFXhJKe6_9REkI408M1E-1" parent="KFXhJKe6_9REkI408M1E-0" />
        <mxCell id="KFXhJKe6_9REkI408M1E-2" value="" style="edgeStyle=orthogonalEdgeStyle;rounded=0;orthogonalLoop=1;jettySize=auto;html=1;exitX=1;exitY=0.5;exitDx=0;exitDy=0;entryX=0;entryY=0.5;entryDx=0;entryDy=0;align=left;spacingLeft=6;verticalAlign=top;" parent="KFXhJKe6_9REkI408M1E-1" edge="1">
          <mxGeometry relative="1" as="geometry">
            <mxPoint x="390" y="175" as="sourcePoint" />
          </mxGeometry>
        </mxCell>
        <mxCell id="KFXhJKe6_9REkI408M1E-3" value="&amp;nbsp;" style="text;html=1;strokeColor=none;fillColor=none;align=center;verticalAlign=top;whiteSpace=wrap;rounded=0;spacingLeft=6;fontFamily=Computer Modern Sans;fontSource=https%3A%2F%2Fraw.githubusercontent.com%2Faaaakshat%2Fcm-web-fonts%2Fmaster%2Ffont%2FSans%2Fcmunss.woff;fontStyle=0" parent="KFXhJKe6_9REkI408M1E-1" vertex="1">
          <mxGeometry y="40" width="650" height="30" as="geometry" />
        </mxCell>
        <mxCell id="ygyiAGfdA0ZmM4K6jol_-0" style="edgeStyle=orthogonalEdgeStyle;rounded=0;orthogonalLoop=1;jettySize=auto;html=1;exitX=1;exitY=0.5;exitDx=0;exitDy=0;entryX=0;entryY=0.5;entryDx=0;entryDy=0;fontFamily=Computer Modern Sans;fontSize=12;fontColor=default;endArrow=none;endFill=0;fontSource=https%3A%2F%2Fraw.githubusercontent.com%2Faaaakshat%2Fcm-web-fonts%2Fmaster%2Ffont%2FSans%2Fcmunss.woff;" parent="KFXhJKe6_9REkI408M1E-1" source="ygyiAGfdA0ZmM4K6jol_-2" target="ygyiAGfdA0ZmM4K6jol_-3" edge="1">
          <mxGeometry relative="1" as="geometry" />
        </mxCell>
        <mxCell id="ygyiAGfdA0ZmM4K6jol_-1" value="Capacity Staking Model" style="edgeLabel;html=1;align=center;verticalAlign=middle;resizable=0;points=[];fontSize=12;fontFamily=Computer Modern Sans Bold;fontColor=default;fontSource=https%3A%2F%2Fraw.githubusercontent.com%2Faaaakshat%2Fcm-web-fonts%2Fmaster%2Ffont%2FSans%2Fcmunsx.woff;" parent="ygyiAGfdA0ZmM4K6jol_-0" connectable="0" vertex="1">
          <mxGeometry x="-0.0448" y="-1" relative="1" as="geometry">
            <mxPoint x="7" y="14" as="offset" />
          </mxGeometry>
        </mxCell>
        <mxCell id="ygyiAGfdA0ZmM4K6jol_-2" value="Decentralized" style="ellipse;whiteSpace=wrap;html=1;aspect=fixed;fontFamily=Computer Modern Sans;align=center;strokeColor=#828282;rounded=0;spacingLeft=0;dashed=1;fontSource=https%3A%2F%2Fraw.githubusercontent.com%2Faaaakshat%2Fcm-web-fonts%2Fmaster%2Ffont%2FSans%2Fcmunss.woff;strokeWidth=1;perimeterSpacing=0;spacing=6;dashPattern=8 8;" parent="KFXhJKe6_9REkI408M1E-1" vertex="1">
          <mxGeometry x="50" y="40" width="110" height="110" as="geometry" />
        </mxCell>
        <mxCell id="ygyiAGfdA0ZmM4K6jol_-3" value="Business-Friendly" style="ellipse;whiteSpace=wrap;html=1;aspect=fixed;fontFamily=Computer Modern Sans;align=center;strokeColor=#828282;rounded=0;spacingLeft=0;dashed=1;dashPattern=8 8;fontSource=https%3A%2F%2Fraw.githubusercontent.com%2Faaaakshat%2Fcm-web-fonts%2Fmaster%2Ffont%2FSans%2Fcmunss.woff;spacing=6;" parent="KFXhJKe6_9REkI408M1E-1" vertex="1">
          <mxGeometry x="490" y="40" width="110" height="110" as="geometry" />
        </mxCell>
      </root>
    </mxGraphModel>
  </diagram>
  <diagram id="xV-K1eLgkDpTFZPY5nr-" name="06 The Capacity Refill Model">
    <mxGraphModel dx="1570" dy="1027" grid="1" gridSize="10" guides="1" tooltips="1" connect="1" arrows="1" fold="1" page="1" pageScale="1" pageWidth="650" pageHeight="1100" math="0" shadow="0">
      <root>
        <mxCell id="0" />
        <mxCell id="1" parent="0" />
        <mxCell id="0ye93QD7ceyEDzBpq4pw-1" value="&amp;nbsp;" style="text;html=1;strokeColor=none;fillColor=none;align=center;verticalAlign=top;whiteSpace=wrap;rounded=0;spacingLeft=6;fontFamily=Computer Modern Sans;fontSource=https%3A%2F%2Fraw.githubusercontent.com%2Faaaakshat%2Fcm-web-fonts%2Fmaster%2Ffont%2FSans%2Fcmunss.woff;fontStyle=0" parent="1" vertex="1">
          <mxGeometry y="150" width="650" height="30" as="geometry" />
        </mxCell>
        <mxCell id="FUf0xGTfWfMRmbufla7q-1" style="edgeStyle=orthogonalEdgeStyle;rounded=0;orthogonalLoop=1;jettySize=auto;html=1;fontFamily=Computer Modern Sans;fontSize=12;fontColor=default;strokeWidth=4;endArrow=none;endFill=0;exitX=0.241;exitY=0.999;exitDx=0;exitDy=0;exitPerimeter=0;entryX=0.703;entryY=0.004;entryDx=0;entryDy=0;entryPerimeter=0;fontSource=https%3A%2F%2Fraw.githubusercontent.com%2Faaaakshat%2Fcm-web-fonts%2Fmaster%2Ffont%2FSans%2Fcmunss.woff;fontStyle=0" parent="1" source="FUf0xGTfWfMRmbufla7q-2" target="FUf0xGTfWfMRmbufla7q-13" edge="1">
          <mxGeometry relative="1" as="geometry">
            <mxPoint x="610" y="240" as="targetPoint" />
            <mxPoint x="70" y="370" as="sourcePoint" />
            <Array as="points">
              <mxPoint x="100" y="370" />
              <mxPoint x="100" y="260" />
              <mxPoint x="220" y="260" />
              <mxPoint x="220" y="300" />
              <mxPoint x="300" y="300" />
              <mxPoint x="300" y="320" />
              <mxPoint x="360" y="320" />
              <mxPoint x="360" y="260" />
              <mxPoint x="420" y="260" />
              <mxPoint x="420" y="350" />
              <mxPoint x="440" y="350" />
              <mxPoint x="440" y="330" />
              <mxPoint x="500" y="330" />
              <mxPoint x="500" y="370" />
              <mxPoint x="560" y="370" />
              <mxPoint x="560" y="239" />
              <mxPoint x="611" y="239" />
            </Array>
          </mxGeometry>
        </mxCell>
        <mxCell id="FUf0xGTfWfMRmbufla7q-2" value="Provider&#39;s Capacity Amount" style="rounded=0;whiteSpace=wrap;html=1;shadow=0;labelBackgroundColor=none;sketch=0;strokeWidth=1;fillColor=#FFFFFF;gradientColor=none;fontSize=12;align=center;strokeColor=#828282;spacingLeft=0;fontFamily=Computer Modern Sans;verticalAlign=middle;rotation=-90;fontSource=https%3A%2F%2Fraw.githubusercontent.com%2Faaaakshat%2Fcm-web-fonts%2Fmaster%2Ffont%2FSans%2Fcmunss.woff;fontStyle=0" parent="1" vertex="1">
          <mxGeometry x="-125" y="275" width="290" height="40" as="geometry" />
        </mxCell>
        <mxCell id="0ye93QD7ceyEDzBpq4pw-2" style="edgeStyle=orthogonalEdgeStyle;rounded=0;orthogonalLoop=1;jettySize=auto;html=1;fontFamily=Computer Modern Sans;fontSize=12;fontColor=default;targetPerimeterSpacing=0;endArrow=classic;endFill=1;fontSource=https%3A%2F%2Fraw.githubusercontent.com%2Faaaakshat%2Fcm-web-fonts%2Fmaster%2Ffont%2FSans%2Fcmunss.woff;fontStyle=0" parent="1" edge="1">
          <mxGeometry relative="1" as="geometry">
            <mxPoint x="100" y="372" as="targetPoint" />
            <mxPoint x="100" y="400" as="sourcePoint" />
          </mxGeometry>
        </mxCell>
        <mxCell id="FUf0xGTfWfMRmbufla7q-4" value="Stake" style="rounded=0;whiteSpace=wrap;html=1;shadow=0;labelBackgroundColor=none;sketch=0;strokeWidth=1;fillColor=#FFFFFF;gradientColor=none;fontSize=12;align=center;strokeColor=#828282;spacingLeft=0;fontFamily=Computer Modern Sans;verticalAlign=middle;spacing=6;fontSource=https%3A%2F%2Fraw.githubusercontent.com%2Faaaakshat%2Fcm-web-fonts%2Fmaster%2Ffont%2FSans%2Fcmunss.woff;fontStyle=0" parent="1" vertex="1">
          <mxGeometry x="60" y="400" width="80" height="40" as="geometry" />
        </mxCell>
        <mxCell id="FUf0xGTfWfMRmbufla7q-5" style="edgeStyle=orthogonalEdgeStyle;rounded=0;orthogonalLoop=1;jettySize=auto;html=1;fontFamily=Computer Modern Sans;fontSize=12;fontColor=default;exitX=0.5;exitY=1;exitDx=0;exitDy=0;targetPerimeterSpacing=0;endArrow=classic;endFill=1;fontSource=https%3A%2F%2Fraw.githubusercontent.com%2Faaaakshat%2Fcm-web-fonts%2Fmaster%2Ffont%2FSans%2Fcmunss.woff;fontStyle=0" parent="1" source="FUf0xGTfWfMRmbufla7q-6" edge="1">
          <mxGeometry relative="1" as="geometry">
            <mxPoint x="220" y="258" as="targetPoint" />
          </mxGeometry>
        </mxCell>
        <mxCell id="FUf0xGTfWfMRmbufla7q-6" value="Use Capacity" style="rounded=0;whiteSpace=wrap;html=1;shadow=0;labelBackgroundColor=none;sketch=0;strokeWidth=1;fillColor=#FFFFFF;gradientColor=none;fontSize=12;align=center;strokeColor=#828282;spacingLeft=0;fontFamily=Computer Modern Sans;verticalAlign=middle;spacing=6;fontSource=https%3A%2F%2Fraw.githubusercontent.com%2Faaaakshat%2Fcm-web-fonts%2Fmaster%2Ffont%2FSans%2Fcmunss.woff;fontStyle=0" parent="1" vertex="1">
          <mxGeometry x="180" y="150" width="80" height="40" as="geometry" />
        </mxCell>
        <mxCell id="FUf0xGTfWfMRmbufla7q-7" style="edgeStyle=orthogonalEdgeStyle;rounded=0;orthogonalLoop=1;jettySize=auto;html=1;fontFamily=Computer Modern Sans;fontSize=12;fontColor=default;targetPerimeterSpacing=0;endArrow=classic;endFill=1;fontSource=https%3A%2F%2Fraw.githubusercontent.com%2Faaaakshat%2Fcm-web-fonts%2Fmaster%2Ffont%2FSans%2Fcmunss.woff;fontStyle=0" parent="1" source="FUf0xGTfWfMRmbufla7q-8" edge="1">
          <mxGeometry relative="1" as="geometry">
            <mxPoint x="300" y="298" as="targetPoint" />
          </mxGeometry>
        </mxCell>
        <mxCell id="FUf0xGTfWfMRmbufla7q-8" value="Use Capacity" style="rounded=0;whiteSpace=wrap;html=1;shadow=0;labelBackgroundColor=none;sketch=0;strokeWidth=1;fillColor=#FFFFFF;gradientColor=none;fontSize=12;align=center;strokeColor=#828282;spacingLeft=0;fontFamily=Computer Modern Sans;verticalAlign=middle;spacing=6;fontSource=https%3A%2F%2Fraw.githubusercontent.com%2Faaaakshat%2Fcm-web-fonts%2Fmaster%2Ffont%2FSans%2Fcmunss.woff;fontStyle=0" parent="1" vertex="1">
          <mxGeometry x="260" y="200" width="80" height="40" as="geometry" />
        </mxCell>
        <mxCell id="FUf0xGTfWfMRmbufla7q-9" style="edgeStyle=orthogonalEdgeStyle;rounded=0;orthogonalLoop=1;jettySize=auto;html=1;fontFamily=Computer Modern Sans;fontSize=12;fontColor=default;exitX=0.5;exitY=0;exitDx=0;exitDy=0;targetPerimeterSpacing=0;endArrow=classic;endFill=1;endSize=6;snapToPoint=0;fixDash=0;comic=0;enumerate=0;orthogonal=0;ignoreEdge=0;anchorPointDirection=1;startFill=1;fontSource=https%3A%2F%2Fraw.githubusercontent.com%2Faaaakshat%2Fcm-web-fonts%2Fmaster%2Ffont%2FSans%2Fcmunss.woff;fontStyle=0" parent="1" source="FUf0xGTfWfMRmbufla7q-10" edge="1">
          <mxGeometry relative="1" as="geometry">
            <mxPoint x="440" y="352" as="targetPoint" />
            <mxPoint x="451" y="371" as="sourcePoint" />
            <Array as="points">
              <mxPoint x="440" y="370" />
            </Array>
          </mxGeometry>
        </mxCell>
        <mxCell id="FUf0xGTfWfMRmbufla7q-10" value="Stake Additional" style="rounded=0;whiteSpace=wrap;html=1;shadow=0;labelBackgroundColor=none;sketch=0;strokeWidth=1;fillColor=#FFFFFF;gradientColor=none;fontSize=12;align=center;strokeColor=#828282;spacingLeft=0;fontFamily=Computer Modern Sans;verticalAlign=middle;spacing=6;fontSource=https%3A%2F%2Fraw.githubusercontent.com%2Faaaakshat%2Fcm-web-fonts%2Fmaster%2Ffont%2FSans%2Fcmunss.woff;fontStyle=0" parent="1" vertex="1">
          <mxGeometry x="400" y="370" width="80" height="40" as="geometry" />
        </mxCell>
        <mxCell id="FUf0xGTfWfMRmbufla7q-11" style="edgeStyle=orthogonalEdgeStyle;rounded=0;orthogonalLoop=1;jettySize=auto;html=1;fontFamily=Computer Modern Sans;fontSize=12;fontColor=default;targetPerimeterSpacing=0;endArrow=classic;endFill=1;fontSource=https%3A%2F%2Fraw.githubusercontent.com%2Faaaakshat%2Fcm-web-fonts%2Fmaster%2Ffont%2FSans%2Fcmunss.woff;fontStyle=0" parent="1" source="FUf0xGTfWfMRmbufla7q-12" edge="1">
          <mxGeometry relative="1" as="geometry">
            <mxPoint x="500" y="328" as="targetPoint" />
          </mxGeometry>
        </mxCell>
        <mxCell id="FUf0xGTfWfMRmbufla7q-12" value="Use Capacity" style="rounded=0;whiteSpace=wrap;html=1;shadow=0;labelBackgroundColor=none;sketch=0;strokeWidth=1;fillColor=#FFFFFF;gradientColor=none;fontSize=12;align=center;strokeColor=#828282;spacingLeft=0;fontFamily=Computer Modern Sans;verticalAlign=middle;spacing=6;fontSource=https%3A%2F%2Fraw.githubusercontent.com%2Faaaakshat%2Fcm-web-fonts%2Fmaster%2Ffont%2FSans%2Fcmunss.woff;fontStyle=0" parent="1" vertex="1">
          <mxGeometry x="460" y="200" width="80" height="40" as="geometry" />
        </mxCell>
        <mxCell id="FUf0xGTfWfMRmbufla7q-13" value="Provider&#39;s Capacity Amount" style="rounded=0;whiteSpace=wrap;html=1;shadow=0;labelBackgroundColor=none;sketch=0;strokeWidth=1;fillColor=#FFFFFF;gradientColor=none;fontSize=12;align=center;strokeColor=#828282;spacingLeft=0;fontFamily=Computer Modern Sans;verticalAlign=middle;rotation=-90;fontSource=https%3A%2F%2Fraw.githubusercontent.com%2Faaaakshat%2Fcm-web-fonts%2Fmaster%2Ffont%2FSans%2Fcmunss.woff;fontStyle=0" parent="1" vertex="1">
          <mxGeometry x="480" y="280" width="300" height="40" as="geometry" />
        </mxCell>
        <mxCell id="FUf0xGTfWfMRmbufla7q-16" style="edgeStyle=orthogonalEdgeStyle;rounded=0;orthogonalLoop=1;jettySize=auto;html=1;fontFamily=Computer Modern Sans;fontSize=12;fontColor=default;targetPerimeterSpacing=0;endArrow=classic;endFill=1;fontSource=https%3A%2F%2Fraw.githubusercontent.com%2Faaaakshat%2Fcm-web-fonts%2Fmaster%2Ffont%2FSans%2Fcmunss.woff;fontStyle=0" parent="1" source="FUf0xGTfWfMRmbufla7q-17" edge="1">
          <mxGeometry relative="1" as="geometry">
            <mxPoint x="420" y="258" as="targetPoint" />
          </mxGeometry>
        </mxCell>
        <mxCell id="FUf0xGTfWfMRmbufla7q-17" value="Use Capacity" style="rounded=0;whiteSpace=wrap;html=1;shadow=0;labelBackgroundColor=none;sketch=0;strokeWidth=1;fillColor=#FFFFFF;gradientColor=none;fontSize=12;align=center;strokeColor=#828282;spacingLeft=0;fontFamily=Computer Modern Sans;verticalAlign=middle;spacing=6;fontSource=https%3A%2F%2Fraw.githubusercontent.com%2Faaaakshat%2Fcm-web-fonts%2Fmaster%2Ffont%2FSans%2Fcmunss.woff;fontStyle=0" parent="1" vertex="1">
          <mxGeometry x="380" y="150" width="80" height="40" as="geometry" />
        </mxCell>
        <mxCell id="FUf0xGTfWfMRmbufla7q-22" value="Epoch Period" style="edgeStyle=orthogonalEdgeStyle;rounded=0;orthogonalLoop=1;jettySize=auto;html=1;entryX=1;entryY=0.25;entryDx=0;entryDy=0;fontFamily=Computer Modern Sans;fontSize=12;fontColor=default;fontSource=https%3A%2F%2Fraw.githubusercontent.com%2Faaaakshat%2Fcm-web-fonts%2Fmaster%2Ffont%2FSans%2Fcmunss.woff;fontStyle=0" parent="1" edge="1">
          <mxGeometry relative="1" as="geometry">
            <mxPoint x="170" y="430" as="sourcePoint" />
            <mxPoint x="349.5" y="430" as="targetPoint" />
          </mxGeometry>
        </mxCell>
        <mxCell id="FUf0xGTfWfMRmbufla7q-20" value="&lt;span style=&quot;color: rgb(0, 0, 0); font-size: 12px; font-style: normal; font-variant-ligatures: normal; font-variant-caps: normal; letter-spacing: normal; orphans: 2; text-align: center; text-indent: 0px; text-transform: none; widows: 2; word-spacing: 0px; -webkit-text-stroke-width: 0px; text-decoration-thickness: initial; text-decoration-style: initial; text-decoration-color: initial; float: none; display: inline !important;&quot;&gt;Epoch Refill&lt;/span&gt;" style="rounded=0;whiteSpace=wrap;html=1;shadow=0;labelBackgroundColor=none;sketch=0;strokeWidth=1;fillColor=#bdbdbd;gradientColor=none;fontSize=12;align=center;strokeColor=#828282;spacingLeft=0;fontFamily=Computer Modern Sans;verticalAlign=middle;horizontal=0;rotation=0;direction=east;fontSource=https%3A%2F%2Fraw.githubusercontent.com%2Faaaakshat%2Fcm-web-fonts%2Fmaster%2Ffont%2FSans%2Fcmunss.woff;fontStyle=0" parent="1" vertex="1">
          <mxGeometry x="150" y="150" width="20" height="290" as="geometry" />
        </mxCell>
        <mxCell id="FUf0xGTfWfMRmbufla7q-23" value="Epoch Period" style="edgeStyle=orthogonalEdgeStyle;rounded=0;orthogonalLoop=1;jettySize=auto;html=1;exitX=0;exitY=0.25;exitDx=0;exitDy=0;fontFamily=Computer Modern Sans;fontSize=12;fontColor=default;fontSource=https%3A%2F%2Fraw.githubusercontent.com%2Faaaakshat%2Fcm-web-fonts%2Fmaster%2Ffont%2FSans%2Fcmunss.woff;fontStyle=0" parent="1" edge="1">
          <mxGeometry relative="1" as="geometry">
            <mxPoint x="370.5" y="430" as="sourcePoint" />
            <mxPoint x="549.5" y="430" as="targetPoint" />
            <Array as="points">
              <mxPoint x="450" y="430" />
              <mxPoint x="530" y="430" />
            </Array>
          </mxGeometry>
        </mxCell>
        <mxCell id="FUf0xGTfWfMRmbufla7q-19" value="&lt;span style=&quot;color: rgb(0, 0, 0); font-size: 12px; font-style: normal; font-variant-ligatures: normal; font-variant-caps: normal; letter-spacing: normal; orphans: 2; text-align: center; text-indent: 0px; text-transform: none; widows: 2; word-spacing: 0px; -webkit-text-stroke-width: 0px; text-decoration-thickness: initial; text-decoration-style: initial; text-decoration-color: initial; float: none; display: inline !important;&quot;&gt;Epoch Refill&lt;/span&gt;" style="rounded=0;whiteSpace=wrap;html=1;shadow=0;labelBackgroundColor=none;sketch=0;strokeWidth=1;fillColor=#bdbdbd;gradientColor=none;fontSize=12;align=center;strokeColor=#828282;spacingLeft=0;fontFamily=Computer Modern Sans;verticalAlign=middle;horizontal=0;rotation=0;direction=east;fontSource=https%3A%2F%2Fraw.githubusercontent.com%2Faaaakshat%2Fcm-web-fonts%2Fmaster%2Ffont%2FSans%2Fcmunss.woff;fontStyle=0" parent="1" vertex="1">
          <mxGeometry x="350" y="150" width="20" height="300" as="geometry" />
        </mxCell>
        <mxCell id="FUf0xGTfWfMRmbufla7q-18" value="&lt;span style=&quot;color: rgb(0, 0, 0); font-size: 12px; font-style: normal; font-variant-ligatures: normal; font-variant-caps: normal; letter-spacing: normal; orphans: 2; text-align: center; text-indent: 0px; text-transform: none; widows: 2; word-spacing: 0px; -webkit-text-stroke-width: 0px; text-decoration-thickness: initial; text-decoration-style: initial; text-decoration-color: initial; float: none; display: inline !important;&quot;&gt;Epoch Refill&lt;/span&gt;" style="rounded=0;whiteSpace=wrap;html=1;shadow=0;labelBackgroundColor=none;sketch=0;strokeWidth=1;fillColor=#bdbdbd;gradientColor=none;fontSize=12;align=center;strokeColor=#828282;spacingLeft=0;fontFamily=Computer Modern Sans;verticalAlign=middle;horizontal=0;rotation=0;direction=east;fontSource=https%3A%2F%2Fraw.githubusercontent.com%2Faaaakshat%2Fcm-web-fonts%2Fmaster%2Ffont%2FSans%2Fcmunss.woff;fontStyle=0" parent="1" vertex="1">
          <mxGeometry x="550" y="150" width="20" height="300" as="geometry" />
        </mxCell>
      </root>
    </mxGraphModel>
  </diagram>
  <diagram id="ag0-z5QcX7Lp5Qd46XD7" name="07 Staking for Capacity">
    <mxGraphModel dx="1570" dy="1027" grid="1" gridSize="10" guides="1" tooltips="1" connect="1" arrows="1" fold="1" page="1" pageScale="1" pageWidth="650" pageHeight="1100" math="0" shadow="0">
      <root>
        <mxCell id="0" />
        <mxCell id="1" parent="0" />
        <mxCell id="QmyuavtpYD4ITkxRKN0E-3" style="edgeStyle=orthogonalEdgeStyle;rounded=0;orthogonalLoop=1;jettySize=auto;html=1;fontFamily=Computer Modern Sans;fontSize=12;fontColor=default;fontSource=https%3A%2F%2Fraw.githubusercontent.com%2Faaaakshat%2Fcm-web-fonts%2Fmaster%2Ffont%2FSans%2Fcmunss.woff;" parent="1" source="Kon9Jb7Zf5kQJFQWuond-1" target="QmyuavtpYD4ITkxRKN0E-2" edge="1">
          <mxGeometry relative="1" as="geometry" />
        </mxCell>
        <mxCell id="QmyuavtpYD4ITkxRKN0E-4" value="Stake Tokens" style="edgeLabel;html=1;align=center;verticalAlign=middle;resizable=0;points=[];fontSize=12;fontFamily=Computer Modern Sans;fontColor=default;fontSource=https%3A%2F%2Fraw.githubusercontent.com%2Faaaakshat%2Fcm-web-fonts%2Fmaster%2Ffont%2FSans%2Fcmunss.woff;" parent="QmyuavtpYD4ITkxRKN0E-3" vertex="1" connectable="0">
          <mxGeometry x="-0.05" relative="1" as="geometry">
            <mxPoint y="-4" as="offset" />
          </mxGeometry>
        </mxCell>
        <mxCell id="Kon9Jb7Zf5kQJFQWuond-1" value="Staking Wallet" style="rounded=0;whiteSpace=wrap;html=1;shadow=0;labelBackgroundColor=none;sketch=0;strokeWidth=1;fillColor=#FFFFFF;gradientColor=none;fontSize=12;align=center;strokeColor=#828282;spacingLeft=0;fontFamily=Computer Modern Sans Bold;verticalAlign=middle;fontSource=https%3A%2F%2Fraw.githubusercontent.com%2Faaaakshat%2Fcm-web-fonts%2Fmaster%2Ffont%2FSans%2Fcmunsx.woff;" parent="1" vertex="1">
          <mxGeometry x="255" y="30" width="140" height="40" as="geometry" />
        </mxCell>
        <mxCell id="QmyuavtpYD4ITkxRKN0E-7" style="edgeStyle=orthogonalEdgeStyle;rounded=0;orthogonalLoop=1;jettySize=auto;html=1;entryX=1;entryY=0.5;entryDx=0;entryDy=0;fontFamily=Computer Modern Sans;fontSize=12;fontColor=default;fontSource=https%3A%2F%2Fraw.githubusercontent.com%2Faaaakshat%2Fcm-web-fonts%2Fmaster%2Ffont%2FSans%2Fcmunss.woff;" parent="1" source="QmyuavtpYD4ITkxRKN0E-2" target="QmyuavtpYD4ITkxRKN0E-5" edge="1">
          <mxGeometry relative="1" as="geometry" />
        </mxCell>
        <mxCell id="QmyuavtpYD4ITkxRKN0E-8" style="edgeStyle=orthogonalEdgeStyle;rounded=0;orthogonalLoop=1;jettySize=auto;html=1;fontFamily=Computer Modern Sans;fontSize=12;fontColor=default;fontSource=https%3A%2F%2Fraw.githubusercontent.com%2Faaaakshat%2Fcm-web-fonts%2Fmaster%2Ffont%2FSans%2Fcmunss.woff;" parent="1" source="QmyuavtpYD4ITkxRKN0E-2" target="QmyuavtpYD4ITkxRKN0E-6" edge="1">
          <mxGeometry relative="1" as="geometry" />
        </mxCell>
        <mxCell id="QmyuavtpYD4ITkxRKN0E-2" value="Choose&lt;br&gt;Staking&lt;br&gt;Type" style="rhombus;whiteSpace=wrap;html=1;rounded=0;strokeColor=#828282;fontFamily=Computer Modern Sans Bold;fontSize=12;fontColor=rgb(0, 0, 0);fillColor=#FFFFFF;shadow=0;labelBackgroundColor=none;sketch=0;strokeWidth=1;gradientColor=none;spacingLeft=0;fontSource=https%3A%2F%2Fraw.githubusercontent.com%2Faaaakshat%2Fcm-web-fonts%2Fmaster%2Ffont%2FSans%2Fcmunsx.woff;" parent="1" vertex="1">
          <mxGeometry x="275" y="120" width="100" height="100" as="geometry" />
        </mxCell>
        <mxCell id="QmyuavtpYD4ITkxRKN0E-10" style="edgeStyle=orthogonalEdgeStyle;rounded=0;orthogonalLoop=1;jettySize=auto;html=1;entryX=0;entryY=0.5;entryDx=0;entryDy=0;fontFamily=Computer Modern Sans;fontSize=12;fontColor=default;exitX=0.5;exitY=1;exitDx=0;exitDy=0;fontSource=https%3A%2F%2Fraw.githubusercontent.com%2Faaaakshat%2Fcm-web-fonts%2Fmaster%2Ffont%2FSans%2Fcmunss.woff;" parent="1" source="QmyuavtpYD4ITkxRKN0E-5" target="QmyuavtpYD4ITkxRKN0E-9" edge="1">
          <mxGeometry relative="1" as="geometry" />
        </mxCell>
        <mxCell id="QmyuavtpYD4ITkxRKN0E-11" value="Capacity" style="edgeLabel;html=1;align=center;verticalAlign=middle;resizable=0;points=[];fontSize=12;fontFamily=Computer Modern Sans;fontColor=default;fontSource=https%3A%2F%2Fraw.githubusercontent.com%2Faaaakshat%2Fcm-web-fonts%2Fmaster%2Ffont%2FSans%2Fcmunss.woff;" parent="QmyuavtpYD4ITkxRKN0E-10" vertex="1" connectable="0">
          <mxGeometry x="-0.6103" y="-1" relative="1" as="geometry">
            <mxPoint x="1" y="-11" as="offset" />
          </mxGeometry>
        </mxCell>
        <mxCell id="QmyuavtpYD4ITkxRKN0E-5" value="&lt;font data-font-src=&quot;https://raw.githubusercontent.com/aaaakshat/cm-web-fonts/master/font/Sans/cmunsx.woff&quot; face=&quot;Computer Modern Sans Bold&quot;&gt;Maximized Capacity Staking&lt;/font&gt;&lt;br&gt;&lt;br&gt;Generates Maximum Possible Capacity Per Token" style="rounded=0;whiteSpace=wrap;html=1;shadow=0;labelBackgroundColor=none;sketch=0;strokeWidth=1;fillColor=#FFFFFF;gradientColor=none;fontSize=12;align=center;strokeColor=#828282;spacingLeft=0;fontFamily=Computer Modern Sans;verticalAlign=middle;dashed=1;dashPattern=8 8;fontSource=https%3A%2F%2Fraw.githubusercontent.com%2Faaaakshat%2Fcm-web-fonts%2Fmaster%2Ffont%2FSans%2Fcmunss.woff;" parent="1" vertex="1">
          <mxGeometry x="10" y="130" width="210" height="80" as="geometry" />
        </mxCell>
        <mxCell id="QmyuavtpYD4ITkxRKN0E-12" style="edgeStyle=orthogonalEdgeStyle;rounded=0;orthogonalLoop=1;jettySize=auto;html=1;entryX=1;entryY=0.5;entryDx=0;entryDy=0;fontFamily=Computer Modern Sans;fontSize=12;fontColor=default;exitX=0.5;exitY=1;exitDx=0;exitDy=0;fontSource=https%3A%2F%2Fraw.githubusercontent.com%2Faaaakshat%2Fcm-web-fonts%2Fmaster%2Ffont%2FSans%2Fcmunss.woff;" parent="1" source="QmyuavtpYD4ITkxRKN0E-6" target="QmyuavtpYD4ITkxRKN0E-9" edge="1">
          <mxGeometry relative="1" as="geometry" />
        </mxCell>
        <mxCell id="QmyuavtpYD4ITkxRKN0E-13" value="Bonus Capacity" style="edgeLabel;html=1;align=center;verticalAlign=middle;resizable=0;points=[];fontSize=12;fontFamily=Computer Modern Sans;fontColor=default;fontSource=https%3A%2F%2Fraw.githubusercontent.com%2Faaaakshat%2Fcm-web-fonts%2Fmaster%2Ffont%2FSans%2Fcmunss.woff;" parent="QmyuavtpYD4ITkxRKN0E-12" vertex="1" connectable="0">
          <mxGeometry x="-0.6615" y="-1" relative="1" as="geometry">
            <mxPoint x="1" y="-6" as="offset" />
          </mxGeometry>
        </mxCell>
        <mxCell id="QmyuavtpYD4ITkxRKN0E-14" style="edgeStyle=orthogonalEdgeStyle;rounded=0;orthogonalLoop=1;jettySize=auto;html=1;entryX=1;entryY=0.5;entryDx=0;entryDy=0;fontFamily=Computer Modern Sans;fontSize=12;fontColor=default;exitX=0.5;exitY=0;exitDx=0;exitDy=0;fontSource=https%3A%2F%2Fraw.githubusercontent.com%2Faaaakshat%2Fcm-web-fonts%2Fmaster%2Ffont%2FSans%2Fcmunss.woff;" parent="1" source="QmyuavtpYD4ITkxRKN0E-6" target="Kon9Jb7Zf5kQJFQWuond-1" edge="1">
          <mxGeometry relative="1" as="geometry" />
        </mxCell>
        <mxCell id="QmyuavtpYD4ITkxRKN0E-15" value="Token Reward" style="edgeLabel;html=1;align=center;verticalAlign=middle;resizable=0;points=[];fontSize=12;fontFamily=Computer Modern Sans;fontColor=default;fontSource=https%3A%2F%2Fraw.githubusercontent.com%2Faaaakshat%2Fcm-web-fonts%2Fmaster%2Ffont%2FSans%2Fcmunss.woff;" parent="QmyuavtpYD4ITkxRKN0E-14" vertex="1" connectable="0">
          <mxGeometry x="-0.6195" y="1" relative="1" as="geometry">
            <mxPoint x="1" y="2" as="offset" />
          </mxGeometry>
        </mxCell>
        <mxCell id="QmyuavtpYD4ITkxRKN0E-6" value="&lt;font data-font-src=&quot;https://raw.githubusercontent.com/aaaakshat/cm-web-fonts/master/font/Sans/cmunsx.woff&quot; face=&quot;Computer Modern Sans Bold&quot;&gt;Rewards Capacity Staking&lt;/font&gt;&lt;br&gt;&lt;br&gt;&lt;font style=&quot;font-size: 12px;&quot;&gt;Earns Tokens + Generates Bonus Capacity to Support a Provider&lt;/font&gt;" style="rounded=0;whiteSpace=wrap;html=1;shadow=0;labelBackgroundColor=none;sketch=0;strokeWidth=1;fillColor=#FFFFFF;gradientColor=none;fontSize=12;align=center;strokeColor=#828282;spacingLeft=0;fontFamily=Computer Modern Sans;verticalAlign=middle;dashed=1;dashPattern=8 8;fontSource=https%3A%2F%2Fraw.githubusercontent.com%2Faaaakshat%2Fcm-web-fonts%2Fmaster%2Ffont%2FSans%2Fcmunss.woff;" parent="1" vertex="1">
          <mxGeometry x="430" y="130" width="210" height="80" as="geometry" />
        </mxCell>
        <mxCell id="hZ2cVWKSALCMPpt6mxkb-1" value="&amp;nbsp;" style="text;html=1;strokeColor=none;fillColor=none;align=center;verticalAlign=top;whiteSpace=wrap;rounded=0;spacingLeft=6;fontFamily=Computer Modern Sans;fontSource=https%3A%2F%2Fraw.githubusercontent.com%2Faaaakshat%2Fcm-web-fonts%2Fmaster%2Ffont%2FSans%2Fcmunss.woff;fontStyle=0" parent="1" vertex="1">
          <mxGeometry y="30" width="650" height="30" as="geometry" />
        </mxCell>
        <mxCell id="QmyuavtpYD4ITkxRKN0E-9" value="Target Provider" style="rounded=0;whiteSpace=wrap;html=1;shadow=0;labelBackgroundColor=none;sketch=0;strokeWidth=1;fillColor=#FFFFFF;gradientColor=none;fontSize=12;align=center;strokeColor=#828282;spacingLeft=0;fontFamily=Computer Modern Sans Bold;verticalAlign=middle;fontSource=https%3A%2F%2Fraw.githubusercontent.com%2Faaaakshat%2Fcm-web-fonts%2Fmaster%2Ffont%2FSans%2Fcmunsx.woff;" parent="1" vertex="1">
          <mxGeometry x="255" y="260" width="140" height="40" as="geometry" />
        </mxCell>
      </root>
    </mxGraphModel>
  </diagram>
  <diagram name="08 Low Cost and Friction vs Business-Friendly Dichotomy" id="GhRv1EDQ8R7q2MnS7q4f">
    <mxGraphModel dx="1570" dy="1027" grid="1" gridSize="10" guides="1" tooltips="1" connect="1" arrows="1" fold="1" page="1" pageScale="1" pageWidth="650" pageHeight="1100" math="0" shadow="0">
      <root>
        <mxCell id="yaQqnAYHBzcTJ8S5TBBN-0" />
        <mxCell id="yaQqnAYHBzcTJ8S5TBBN-1" parent="yaQqnAYHBzcTJ8S5TBBN-0" />
        <mxCell id="yaQqnAYHBzcTJ8S5TBBN-2" value="" style="edgeStyle=orthogonalEdgeStyle;rounded=0;orthogonalLoop=1;jettySize=auto;html=1;exitX=1;exitY=0.5;exitDx=0;exitDy=0;entryX=0;entryY=0.5;entryDx=0;entryDy=0;align=left;spacingLeft=6;verticalAlign=top;" parent="yaQqnAYHBzcTJ8S5TBBN-1" edge="1">
          <mxGeometry relative="1" as="geometry">
            <mxPoint x="390" y="175" as="sourcePoint" />
          </mxGeometry>
        </mxCell>
        <mxCell id="yaQqnAYHBzcTJ8S5TBBN-3" value="&amp;nbsp;" style="text;html=1;strokeColor=none;fillColor=none;align=center;verticalAlign=top;whiteSpace=wrap;rounded=0;spacingLeft=6;fontFamily=Computer Modern Sans;fontSource=https%3A%2F%2Fraw.githubusercontent.com%2Faaaakshat%2Fcm-web-fonts%2Fmaster%2Ffont%2FSans%2Fcmunss.woff;" parent="yaQqnAYHBzcTJ8S5TBBN-1" vertex="1">
          <mxGeometry y="40" width="650" height="30" as="geometry" />
        </mxCell>
        <mxCell id="aYkShqZ5aoXqWSbufoHR-0" style="edgeStyle=orthogonalEdgeStyle;rounded=0;orthogonalLoop=1;jettySize=auto;html=1;exitX=1;exitY=0.5;exitDx=0;exitDy=0;entryX=0;entryY=0.5;entryDx=0;entryDy=0;fontFamily=Computer Modern Sans;fontSize=12;fontColor=default;endArrow=none;endFill=0;fontSource=https%3A%2F%2Fraw.githubusercontent.com%2Faaaakshat%2Fcm-web-fonts%2Fmaster%2Ffont%2FSans%2Fcmunss.woff;" parent="yaQqnAYHBzcTJ8S5TBBN-1" source="aYkShqZ5aoXqWSbufoHR-2" target="aYkShqZ5aoXqWSbufoHR-3" edge="1">
          <mxGeometry relative="1" as="geometry" />
        </mxCell>
        <mxCell id="aYkShqZ5aoXqWSbufoHR-1" value="Data Transaction Model" style="edgeLabel;html=1;align=center;verticalAlign=middle;resizable=0;points=[];fontSize=12;fontFamily=Computer Modern Sans Bold;fontColor=default;fontSource=https%3A%2F%2Fraw.githubusercontent.com%2Faaaakshat%2Fcm-web-fonts%2Fmaster%2Ffont%2FSans%2Fcmunsx.woff;" parent="aYkShqZ5aoXqWSbufoHR-0" connectable="0" vertex="1">
          <mxGeometry x="-0.0448" y="-1" relative="1" as="geometry">
            <mxPoint x="7" y="14" as="offset" />
          </mxGeometry>
        </mxCell>
        <mxCell id="aYkShqZ5aoXqWSbufoHR-2" value="Low Cost/Friction" style="ellipse;whiteSpace=wrap;html=1;aspect=fixed;fontFamily=Computer Modern Sans;align=center;strokeColor=#828282;rounded=0;spacingLeft=0;dashed=1;fontSource=https%3A%2F%2Fraw.githubusercontent.com%2Faaaakshat%2Fcm-web-fonts%2Fmaster%2Ffont%2FSans%2Fcmunss.woff;strokeWidth=1;perimeterSpacing=0;spacing=6;dashPattern=8 8;" parent="yaQqnAYHBzcTJ8S5TBBN-1" vertex="1">
          <mxGeometry x="50" y="40" width="110" height="110" as="geometry" />
        </mxCell>
        <mxCell id="aYkShqZ5aoXqWSbufoHR-3" value="Business-Friendly" style="ellipse;whiteSpace=wrap;html=1;aspect=fixed;fontFamily=Computer Modern Sans;align=center;strokeColor=#828282;rounded=0;spacingLeft=0;dashed=1;dashPattern=8 8;fontSource=https%3A%2F%2Fraw.githubusercontent.com%2Faaaakshat%2Fcm-web-fonts%2Fmaster%2Ffont%2FSans%2Fcmunss.woff;spacing=6;" parent="yaQqnAYHBzcTJ8S5TBBN-1" vertex="1">
          <mxGeometry x="490" y="40" width="110" height="110" as="geometry" />
        </mxCell>
      </root>
    </mxGraphModel>
  </diagram>
  <diagram id="0BKRZWIxGMkVVz0wl6Ho" name="01 REJECT Three-Legged Stool">
    <mxGraphModel grid="1" page="1" gridSize="10" guides="1" tooltips="1" connect="1" arrows="1" fold="1" pageScale="1" pageWidth="650" pageHeight="1100" math="0" shadow="0">
      <root>
        <mxCell id="0" />
        <mxCell id="1" parent="0" />
        <mxCell id="_JqAXNd-_NWeDB-Y0XpO-13" value="&lt;font&gt;&amp;nbsp;&lt;/font&gt;" style="text;html=1;strokeColor=none;fillColor=none;align=center;verticalAlign=top;whiteSpace=wrap;rounded=0;spacingLeft=6;fontFamily=Computer Modern Sans;fontSource=https%3A%2F%2Fraw.githubusercontent.com%2Faaaakshat%2Fcm-web-fonts%2Fmaster%2Ffont%2FSans%2Fcmunss.woff;" vertex="1" parent="1">
          <mxGeometry width="650" height="30" as="geometry" />
        </mxCell>
        <mxCell id="BWSL-4TuAEoAAcxTQp1n-4" value="" style="edgeStyle=orthogonalEdgeStyle;rounded=0;orthogonalLoop=1;jettySize=auto;html=1;entryX=0;entryY=0.136;entryDx=0;entryDy=0;align=left;spacingLeft=6;verticalAlign=top;fontFamily=Computer Modern Sans;entryPerimeter=0;fontSource=https%3A%2F%2Fraw.githubusercontent.com%2Faaaakshat%2Fcm-web-fonts%2Fmaster%2Ffont%2FSans%2Fcmunss.woff;" edge="1" parent="1" source="BWSL-4TuAEoAAcxTQp1n-5" target="BWSL-4TuAEoAAcxTQp1n-10">
          <mxGeometry relative="1" as="geometry">
            <mxPoint x="278" y="755" as="targetPoint" />
          </mxGeometry>
        </mxCell>
        <mxCell id="BWSL-4TuAEoAAcxTQp1n-5" value="Low Friction/Cost" style="rounded=0;whiteSpace=wrap;html=1;align=left;spacingLeft=6;verticalAlign=middle;strokeColor=#828282;fontFamily=Computer Modern Sans;fontSource=https%3A%2F%2Fraw.githubusercontent.com%2Faaaakshat%2Fcm-web-fonts%2Fmaster%2Ffont%2FSans%2Fcmunss.woff;" vertex="1" parent="1">
          <mxGeometry x="118" y="740" width="120" height="30" as="geometry" />
        </mxCell>
        <mxCell id="BWSL-4TuAEoAAcxTQp1n-6" style="edgeStyle=orthogonalEdgeStyle;rounded=0;orthogonalLoop=1;jettySize=auto;html=1;exitX=1;exitY=0.5;exitDx=0;exitDy=0;entryX=0;entryY=0.5;entryDx=0;entryDy=0;align=left;spacingLeft=6;verticalAlign=top;fontFamily=Computer Modern Sans;fontSource=https%3A%2F%2Fraw.githubusercontent.com%2Faaaakshat%2Fcm-web-fonts%2Fmaster%2Ffont%2FSans%2Fcmunss.woff;" edge="1" parent="1" source="BWSL-4TuAEoAAcxTQp1n-7" target="BWSL-4TuAEoAAcxTQp1n-10">
          <mxGeometry relative="1" as="geometry">
            <mxPoint x="278" y="795" as="targetPoint" />
          </mxGeometry>
        </mxCell>
        <mxCell id="BWSL-4TuAEoAAcxTQp1n-7" value="Decentralized" style="whiteSpace=wrap;html=1;rounded=0;align=left;spacingLeft=6;verticalAlign=middle;strokeColor=#828282;fontFamily=Computer Modern Sans;fontSource=https%3A%2F%2Fraw.githubusercontent.com%2Faaaakshat%2Fcm-web-fonts%2Fmaster%2Ffont%2FSans%2Fcmunss.woff;" vertex="1" parent="1">
          <mxGeometry x="118" y="780" width="120" height="30" as="geometry" />
        </mxCell>
        <mxCell id="BWSL-4TuAEoAAcxTQp1n-8" style="edgeStyle=orthogonalEdgeStyle;rounded=0;orthogonalLoop=1;jettySize=auto;html=1;entryX=-0.001;entryY=0.865;entryDx=0;entryDy=0;entryPerimeter=0;fontFamily=Computer Modern Sans;fontSource=https%3A%2F%2Fraw.githubusercontent.com%2Faaaakshat%2Fcm-web-fonts%2Fmaster%2Ffont%2FSans%2Fcmunss.woff;" edge="1" parent="1" source="BWSL-4TuAEoAAcxTQp1n-9" target="BWSL-4TuAEoAAcxTQp1n-10">
          <mxGeometry relative="1" as="geometry" />
        </mxCell>
        <mxCell id="BWSL-4TuAEoAAcxTQp1n-9" value="Business Friendly" style="whiteSpace=wrap;html=1;rounded=0;align=left;spacingLeft=6;verticalAlign=middle;strokeColor=#828282;fontFamily=Computer Modern Sans;fontSource=https%3A%2F%2Fraw.githubusercontent.com%2Faaaakshat%2Fcm-web-fonts%2Fmaster%2Ffont%2FSans%2Fcmunss.woff;" vertex="1" parent="1">
          <mxGeometry x="118" y="820" width="120" height="30" as="geometry" />
        </mxCell>
        <mxCell id="BWSL-4TuAEoAAcxTQp1n-10" value="Ethical, Economical, Scalable" style="rounded=0;whiteSpace=wrap;html=1;align=left;spacingLeft=6;verticalAlign=middle;strokeColor=#828282;fontFamily=Computer Modern Sans Bold;fontSource=https%3A%2F%2Fraw.githubusercontent.com%2Faaaakshat%2Fcm-web-fonts%2Fmaster%2Ffont%2FSans%2Fcmunsx.woff;" vertex="1" parent="1">
          <mxGeometry x="298" y="740" width="180" height="110" as="geometry" />
        </mxCell>
        <mxCell id="BWSL-4TuAEoAAcxTQp1n-14" style="edgeStyle=orthogonalEdgeStyle;rounded=0;orthogonalLoop=1;jettySize=auto;html=1;entryX=0.148;entryY=0.994;entryDx=0;entryDy=0;entryPerimeter=0;fontFamily=Computer Modern Sans;fontSource=https%3A%2F%2Fraw.githubusercontent.com%2Faaaakshat%2Fcm-web-fonts%2Fmaster%2Ffont%2FSans%2Fcmunss.woff;" edge="1" parent="1" source="BWSL-4TuAEoAAcxTQp1n-15" target="BWSL-4TuAEoAAcxTQp1n-20">
          <mxGeometry relative="1" as="geometry" />
        </mxCell>
        <mxCell id="BWSL-4TuAEoAAcxTQp1n-15" value="Low Friction/Cost" style="rounded=0;whiteSpace=wrap;html=1;align=center;spacingLeft=0;verticalAlign=middle;strokeColor=#828282;fontFamily=Computer Modern Sans;fontSource=https%3A%2F%2Fraw.githubusercontent.com%2Faaaakshat%2Fcm-web-fonts%2Fmaster%2Ffont%2FSans%2Fcmunss.woff;" vertex="1" parent="1">
          <mxGeometry x="258" y="610" width="120" height="30" as="geometry" />
        </mxCell>
        <mxCell id="BWSL-4TuAEoAAcxTQp1n-16" style="edgeStyle=orthogonalEdgeStyle;rounded=0;orthogonalLoop=1;jettySize=auto;html=1;entryX=0.5;entryY=1;entryDx=0;entryDy=0;fontFamily=Computer Modern Sans;fontSource=https%3A%2F%2Fraw.githubusercontent.com%2Faaaakshat%2Fcm-web-fonts%2Fmaster%2Ffont%2FSans%2Fcmunss.woff;" edge="1" parent="1" source="BWSL-4TuAEoAAcxTQp1n-17" target="BWSL-4TuAEoAAcxTQp1n-20">
          <mxGeometry relative="1" as="geometry" />
        </mxCell>
        <mxCell id="BWSL-4TuAEoAAcxTQp1n-17" value="Decentralized" style="whiteSpace=wrap;html=1;rounded=0;align=center;spacingLeft=0;verticalAlign=middle;strokeColor=#828282;fontFamily=Computer Modern Sans;fontSource=https%3A%2F%2Fraw.githubusercontent.com%2Faaaakshat%2Fcm-web-fonts%2Fmaster%2Ffont%2FSans%2Fcmunss.woff;" vertex="1" parent="1">
          <mxGeometry x="328" y="660" width="120" height="30" as="geometry" />
        </mxCell>
        <mxCell id="BWSL-4TuAEoAAcxTQp1n-18" style="edgeStyle=orthogonalEdgeStyle;rounded=0;orthogonalLoop=1;jettySize=auto;html=1;entryX=0.848;entryY=0.994;entryDx=0;entryDy=0;entryPerimeter=0;fontFamily=Computer Modern Sans;fontSource=https%3A%2F%2Fraw.githubusercontent.com%2Faaaakshat%2Fcm-web-fonts%2Fmaster%2Ffont%2FSans%2Fcmunss.woff;" edge="1" parent="1" source="BWSL-4TuAEoAAcxTQp1n-19" target="BWSL-4TuAEoAAcxTQp1n-20">
          <mxGeometry relative="1" as="geometry" />
        </mxCell>
        <mxCell id="BWSL-4TuAEoAAcxTQp1n-19" value="Business Friendly" style="whiteSpace=wrap;html=1;rounded=0;align=center;spacingLeft=0;verticalAlign=middle;strokeColor=#828282;fontFamily=Computer Modern Sans;fontSource=https%3A%2F%2Fraw.githubusercontent.com%2Faaaakshat%2Fcm-web-fonts%2Fmaster%2Ffont%2FSans%2Fcmunss.woff;" vertex="1" parent="1">
          <mxGeometry x="398" y="610" width="120" height="30" as="geometry" />
        </mxCell>
        <mxCell id="BWSL-4TuAEoAAcxTQp1n-20" value="Ethical, Economical, Scalable" style="rounded=0;whiteSpace=wrap;html=1;align=center;spacingLeft=0;verticalAlign=middle;strokeColor=#828282;fontFamily=Computer Modern Sans;fontSource=https%3A%2F%2Fraw.githubusercontent.com%2Faaaakshat%2Fcm-web-fonts%2Fmaster%2Ffont%2FSans%2Fcmunss.woff;" vertex="1" parent="1">
          <mxGeometry x="288" y="520" width="200" height="50" as="geometry" />
        </mxCell>
        <mxCell id="xZjyubqdny_YhBA8eKW0-1" style="edgeStyle=orthogonalEdgeStyle;rounded=0;orthogonalLoop=1;jettySize=auto;html=1;entryX=0.15;entryY=0;entryDx=0;entryDy=0;entryPerimeter=0;fontFamily=Computer Modern Sans;fontSource=https%3A%2F%2Fraw.githubusercontent.com%2Faaaakshat%2Fcm-web-fonts%2Fmaster%2Ffont%2FSans%2Fcmunss.woff;" edge="1" parent="1" source="xZjyubqdny_YhBA8eKW0-2" target="xZjyubqdny_YhBA8eKW0-7">
          <mxGeometry relative="1" as="geometry" />
        </mxCell>
        <mxCell id="xZjyubqdny_YhBA8eKW0-2" value="Low Friction/Cost" style="rounded=0;whiteSpace=wrap;html=1;align=center;spacingLeft=0;verticalAlign=middle;strokeColor=#828282;fontFamily=Computer Modern Sans;fontSource=https%3A%2F%2Fraw.githubusercontent.com%2Faaaakshat%2Fcm-web-fonts%2Fmaster%2Ffont%2FSans%2Fcmunss.woff;" vertex="1" parent="1">
          <mxGeometry x="258" y="950" width="120" height="30" as="geometry" />
        </mxCell>
        <mxCell id="xZjyubqdny_YhBA8eKW0-3" style="edgeStyle=orthogonalEdgeStyle;rounded=0;orthogonalLoop=1;jettySize=auto;html=1;fontFamily=Computer Modern Sans;fontSource=https%3A%2F%2Fraw.githubusercontent.com%2Faaaakshat%2Fcm-web-fonts%2Fmaster%2Ffont%2FSans%2Fcmunss.woff;" edge="1" parent="1" source="xZjyubqdny_YhBA8eKW0-4" target="xZjyubqdny_YhBA8eKW0-7">
          <mxGeometry relative="1" as="geometry" />
        </mxCell>
        <mxCell id="xZjyubqdny_YhBA8eKW0-4" value="Decentralized" style="whiteSpace=wrap;html=1;rounded=0;align=center;spacingLeft=0;verticalAlign=middle;strokeColor=#828282;fontFamily=Computer Modern Sans;fontSource=https%3A%2F%2Fraw.githubusercontent.com%2Faaaakshat%2Fcm-web-fonts%2Fmaster%2Ffont%2FSans%2Fcmunss.woff;" vertex="1" parent="1">
          <mxGeometry x="328" y="1000" width="120" height="30" as="geometry" />
        </mxCell>
        <mxCell id="xZjyubqdny_YhBA8eKW0-5" style="edgeStyle=orthogonalEdgeStyle;rounded=0;orthogonalLoop=1;jettySize=auto;html=1;entryX=0.854;entryY=-0.006;entryDx=0;entryDy=0;entryPerimeter=0;fontFamily=Computer Modern Sans;fontSource=https%3A%2F%2Fraw.githubusercontent.com%2Faaaakshat%2Fcm-web-fonts%2Fmaster%2Ffont%2FSans%2Fcmunss.woff;" edge="1" parent="1" source="xZjyubqdny_YhBA8eKW0-6" target="xZjyubqdny_YhBA8eKW0-7">
          <mxGeometry relative="1" as="geometry" />
        </mxCell>
        <mxCell id="xZjyubqdny_YhBA8eKW0-6" value="Business Friendly" style="whiteSpace=wrap;html=1;rounded=0;align=center;spacingLeft=0;verticalAlign=middle;strokeColor=#828282;fontFamily=Computer Modern Sans;fontSource=https%3A%2F%2Fraw.githubusercontent.com%2Faaaakshat%2Fcm-web-fonts%2Fmaster%2Ffont%2FSans%2Fcmunss.woff;" vertex="1" parent="1">
          <mxGeometry x="398" y="950" width="120" height="30" as="geometry" />
        </mxCell>
        <mxCell id="xZjyubqdny_YhBA8eKW0-7" value="Ethical, Economical, Scalable" style="rounded=0;whiteSpace=wrap;html=1;align=center;spacingLeft=0;verticalAlign=middle;strokeColor=#828282;fontFamily=Computer Modern Sans;fontSource=https%3A%2F%2Fraw.githubusercontent.com%2Faaaakshat%2Fcm-web-fonts%2Fmaster%2Ffont%2FSans%2Fcmunss.woff;" vertex="1" parent="1">
          <mxGeometry x="288" y="1070" width="200" height="50" as="geometry" />
        </mxCell>
        <mxCell id="xZjyubqdny_YhBA8eKW0-8" style="edgeStyle=orthogonalEdgeStyle;rounded=0;orthogonalLoop=1;jettySize=auto;html=1;entryX=0.146;entryY=1;entryDx=0;entryDy=0;entryPerimeter=0;fontFamily=Computer Modern Sans;fontSource=https%3A%2F%2Fraw.githubusercontent.com%2Faaaakshat%2Fcm-web-fonts%2Fmaster%2Ffont%2FSans%2Fcmunss.woff;" edge="1" parent="1" source="xZjyubqdny_YhBA8eKW0-9" target="xZjyubqdny_YhBA8eKW0-14">
          <mxGeometry relative="1" as="geometry" />
        </mxCell>
        <mxCell id="xZjyubqdny_YhBA8eKW0-9" value="Low Friction/Cost" style="rounded=0;whiteSpace=wrap;html=1;align=center;spacingLeft=0;verticalAlign=middle;strokeColor=#828282;fontFamily=Computer Modern Sans;fontSource=https%3A%2F%2Fraw.githubusercontent.com%2Faaaakshat%2Fcm-web-fonts%2Fmaster%2Ffont%2FSans%2Fcmunss.woff;" vertex="1" parent="1">
          <mxGeometry x="120" y="140" width="120" height="30" as="geometry" />
        </mxCell>
        <mxCell id="xZjyubqdny_YhBA8eKW0-10" style="edgeStyle=orthogonalEdgeStyle;rounded=0;orthogonalLoop=1;jettySize=auto;html=1;entryX=0.5;entryY=1;entryDx=0;entryDy=0;fontFamily=Computer Modern Sans;fontSource=https%3A%2F%2Fraw.githubusercontent.com%2Faaaakshat%2Fcm-web-fonts%2Fmaster%2Ffont%2FSans%2Fcmunss.woff;" edge="1" parent="1" source="xZjyubqdny_YhBA8eKW0-11" target="xZjyubqdny_YhBA8eKW0-14">
          <mxGeometry relative="1" as="geometry" />
        </mxCell>
        <mxCell id="xZjyubqdny_YhBA8eKW0-11" value="Decentralized" style="whiteSpace=wrap;html=1;rounded=0;align=center;spacingLeft=0;verticalAlign=middle;strokeColor=#828282;fontFamily=Computer Modern Sans;fontSource=https%3A%2F%2Fraw.githubusercontent.com%2Faaaakshat%2Fcm-web-fonts%2Fmaster%2Ffont%2FSans%2Fcmunss.woff;" vertex="1" parent="1">
          <mxGeometry x="265" y="140" width="120" height="30" as="geometry" />
        </mxCell>
        <mxCell id="xZjyubqdny_YhBA8eKW0-12" style="edgeStyle=orthogonalEdgeStyle;rounded=0;orthogonalLoop=1;jettySize=auto;html=1;entryX=0.854;entryY=1;entryDx=0;entryDy=0;entryPerimeter=0;fontFamily=Computer Modern Sans;fontSource=https%3A%2F%2Fraw.githubusercontent.com%2Faaaakshat%2Fcm-web-fonts%2Fmaster%2Ffont%2FSans%2Fcmunss.woff;" edge="1" parent="1" source="xZjyubqdny_YhBA8eKW0-13" target="xZjyubqdny_YhBA8eKW0-14">
          <mxGeometry relative="1" as="geometry" />
        </mxCell>
        <mxCell id="xZjyubqdny_YhBA8eKW0-13" value="Business Friendly" style="whiteSpace=wrap;html=1;rounded=0;align=center;spacingLeft=0;verticalAlign=middle;strokeColor=#828282;fontFamily=Computer Modern Sans;fontSource=https%3A%2F%2Fraw.githubusercontent.com%2Faaaakshat%2Fcm-web-fonts%2Fmaster%2Ffont%2FSans%2Fcmunss.woff;" vertex="1" parent="1">
          <mxGeometry x="410" y="140" width="120" height="30" as="geometry" />
        </mxCell>
        <mxCell id="xZjyubqdny_YhBA8eKW0-14" value="Ethical, Economical, Scalable" style="rounded=0;whiteSpace=wrap;html=1;align=center;spacingLeft=0;verticalAlign=middle;strokeColor=#828282;fontFamily=Computer Modern Sans Bold;fontSource=https%3A%2F%2Fraw.githubusercontent.com%2Faaaakshat%2Fcm-web-fonts%2Fmaster%2Ffont%2FSans%2Fcmunsx.woff;" vertex="1" parent="1">
          <mxGeometry x="120" y="60" width="410" height="30" as="geometry" />
        </mxCell>
        <mxCell id="xZjyubqdny_YhBA8eKW0-23" style="edgeStyle=orthogonalEdgeStyle;rounded=0;orthogonalLoop=1;jettySize=auto;html=1;entryX=0.146;entryY=0;entryDx=0;entryDy=0;entryPerimeter=0;fontFamily=Computer Modern Sans;fontSize=12;fontColor=default;fontSource=https%3A%2F%2Fraw.githubusercontent.com%2Faaaakshat%2Fcm-web-fonts%2Fmaster%2Ffont%2FSans%2Fcmunss.woff;" edge="1" parent="1" source="xZjyubqdny_YhBA8eKW0-16" target="xZjyubqdny_YhBA8eKW0-21">
          <mxGeometry relative="1" as="geometry" />
        </mxCell>
        <mxCell id="xZjyubqdny_YhBA8eKW0-16" value="Low Friction/Cost" style="rounded=0;whiteSpace=wrap;html=1;align=center;spacingLeft=0;verticalAlign=middle;strokeColor=#828282;fontFamily=Computer Modern Sans;fontSource=https%3A%2F%2Fraw.githubusercontent.com%2Faaaakshat%2Fcm-web-fonts%2Fmaster%2Ffont%2FSans%2Fcmunss.woff;" vertex="1" parent="1">
          <mxGeometry x="123" y="340" width="120" height="30" as="geometry" />
        </mxCell>
        <mxCell id="xZjyubqdny_YhBA8eKW0-24" style="edgeStyle=orthogonalEdgeStyle;rounded=0;orthogonalLoop=1;jettySize=auto;html=1;fontFamily=Computer Modern Sans;fontSize=12;fontColor=default;fontSource=https%3A%2F%2Fraw.githubusercontent.com%2Faaaakshat%2Fcm-web-fonts%2Fmaster%2Ffont%2FSans%2Fcmunss.woff;" edge="1" parent="1" source="xZjyubqdny_YhBA8eKW0-18" target="xZjyubqdny_YhBA8eKW0-21">
          <mxGeometry relative="1" as="geometry" />
        </mxCell>
        <mxCell id="xZjyubqdny_YhBA8eKW0-18" value="Decentralized" style="whiteSpace=wrap;html=1;rounded=0;align=center;spacingLeft=0;verticalAlign=middle;strokeColor=#828282;fontFamily=Computer Modern Sans;fontSource=https%3A%2F%2Fraw.githubusercontent.com%2Faaaakshat%2Fcm-web-fonts%2Fmaster%2Ffont%2FSans%2Fcmunss.woff;" vertex="1" parent="1">
          <mxGeometry x="268" y="340" width="120" height="30" as="geometry" />
        </mxCell>
        <mxCell id="xZjyubqdny_YhBA8eKW0-25" style="edgeStyle=orthogonalEdgeStyle;rounded=0;orthogonalLoop=1;jettySize=auto;html=1;entryX=0.854;entryY=0;entryDx=0;entryDy=0;entryPerimeter=0;fontFamily=Computer Modern Sans;fontSize=12;fontColor=default;fontSource=https%3A%2F%2Fraw.githubusercontent.com%2Faaaakshat%2Fcm-web-fonts%2Fmaster%2Ffont%2FSans%2Fcmunss.woff;" edge="1" parent="1" source="xZjyubqdny_YhBA8eKW0-20" target="xZjyubqdny_YhBA8eKW0-21">
          <mxGeometry relative="1" as="geometry" />
        </mxCell>
        <mxCell id="xZjyubqdny_YhBA8eKW0-20" value="Business Friendly" style="whiteSpace=wrap;html=1;rounded=0;align=center;spacingLeft=0;verticalAlign=middle;strokeColor=#828282;fontFamily=Computer Modern Sans;fontSource=https%3A%2F%2Fraw.githubusercontent.com%2Faaaakshat%2Fcm-web-fonts%2Fmaster%2Ffont%2FSans%2Fcmunss.woff;" vertex="1" parent="1">
          <mxGeometry x="413" y="340" width="120" height="30" as="geometry" />
        </mxCell>
        <mxCell id="xZjyubqdny_YhBA8eKW0-21" value="Ethical, Economical, Scalable" style="rounded=0;whiteSpace=wrap;html=1;align=center;spacingLeft=0;verticalAlign=middle;strokeColor=#828282;fontFamily=Computer Modern Sans;fontSource=https%3A%2F%2Fraw.githubusercontent.com%2Faaaakshat%2Fcm-web-fonts%2Fmaster%2Ffont%2FSans%2Fcmunss.woff;" vertex="1" parent="1">
          <mxGeometry x="123" y="420" width="410" height="50" as="geometry" />
        </mxCell>
      </root>
    </mxGraphModel>
  </diagram>
</mxfile>
